# xmcd CD database file
#
# Track frame offsets:
#	150
#	25950
#	49317
#	71595
#	100854
#	125930
#	149142
#	171525
#	197995
#	223657
#	245030
#
# Disc length: 3848 seconds
#
# Revision: 0
# Processed by: cddbd v1.5PL3 Copyright (c) Steve Scherf et al.
# Submitted via: CDex 1.51
#
DISCID=be0f060b
DTITLE=Cosmos Factor - We All Live In A Jungle
DYEAR=1995
DGENRE=New Age
TTITLE0=Pourquoi?
TTITLE1=Casbah Dream
TTITLE2=We All Live in a Jungle
TTITLE3=Sucked into Reality
TTITLE4=Do Your Thing
TTITLE5=Maya
TTITLE6=Cosmopolitan Rumba
TTITLE7=Cacahuettes
TTITLE8=Shmetsen Samba
TTITLE9=All the World Women
TTITLE10=Cubana
EXTD=YEAR: 1995
EXTT0=
EXTT1=
EXTT2=
EXTT3=
EXTT4=
EXTT5=
EXTT6=
EXTT7=
EXTT8=
EXTT9=
EXTT10=
PLAYORDER=
